# xmcd
#
# Track frame offsets: 
#        150
#        17927
#        35425
#        55686
#        70119
#        91819
#        106221
#
# Disc length: 1592 seconds
#
# Revision: 4
# Processed by: cddbd v1.5.1PL0 Copyright (c) Steve Scherf et al.
# Submitted via: ExactAudioCopy v0.90b4
#
DISCID=4f063607
DTITLE=Lightnin' Hopkins - Lightnin's Love [Delta]
DYEAR=2001
DGENRE=Blues
TTITLE0=I Don't Need No Woman
TTITLE1=I Wish I Was a Baby
TTITLE2=Little Boy Blue
TTITLE3=The Crazy Song
TTITLE4=Lightnin's Love
TTITLE5=That Man from New York City
TTITLE6=Take It If You Want It
EXTD=YEAR: 2001 ID3G:   0
EXTT0=
EXTT1=
EXTT2=
EXTT3=
EXTT4=
EXTT5=
EXTT6=
PLAYORDER=
